<?xml version="1.0" encoding="UTF-8" standalone="no"?>
<!DOCTYPE svg PUBLIC "-//W3C//DTD SVG 1.1//EN" "http://www.w3.org/Graphics/SVG/1.1/DTD/svg11.dtd">
<svg width="100%" height="100%" viewBox="0 0 1200 1500" version="1.1" xmlns="http://www.w3.org/2000/svg" xmlns:xlink="http://www.w3.org/1999/xlink" xml:space="preserve" xmlns:serif="http://www.serif.com/" style="fill-rule:evenodd;clip-rule:evenodd;stroke-linecap:round;stroke-linejoin:round;stroke-miterlimit:1.5;">
    <g id="Artboard1">
        <g>
            <g transform="matrix(1.04091,0,0,1,-17.5639,0)">
                <rect x="111.567" y="978.769" width="979.358" height="81.498" style="fill:rgb(235,235,235);stroke:black;stroke-width:4.18px;"/>
            </g>
            <rect x="98.567" y="822.401" width="1021.33" height="16.151" style="fill:rgb(235,235,235);stroke:black;stroke-width:4.26px;"/>
            <g transform="matrix(1,0,0,1,0,-662)">
                <rect x="98.567" y="822.401" width="1021.33" height="16.151" style="fill:rgb(235,235,235);stroke:black;stroke-width:4.26px;"/>
            </g>
            <g transform="matrix(1,0,0,1,108.643,132.851)">
                <text x="0px" y="0px" style="font-family:'RobotoMono-Bold', 'Roboto Mono', monospace;font-size:67.292px;fill:white;stroke:black;stroke-width:4.26px;stroke-linecap:butt;stroke-miterlimit:2;">SCAN RESULTS</text>
            </g>
            <rect x="636.841" y="352.284" width="192.921" height="64.028" style="fill:white;stroke:black;stroke-width:4.26px;"/>
            <g transform="matrix(1.31017,0,0,1,-735.804,753.953)">
                <rect x="636.841" y="352.284" width="192.921" height="64.028" style="fill:white;stroke:black;stroke-width:3.66px;"/>
            </g>
            <g transform="matrix(3.55415,0,0,1,-1867.56,753.953)">
                <rect x="636.841" y="352.284" width="192.921" height="64.028" style="fill:white;stroke:black;stroke-width:1.63px;"/>
            </g>
            <g transform="matrix(1.31017,0,0,1,-735.804,843.953)">
                <rect x="636.841" y="352.284" width="192.921" height="64.028" style="fill:white;stroke:black;stroke-width:3.66px;"/>
            </g>
            <g transform="matrix(3.55415,0,0,1,-1867.56,843.953)">
                <rect x="636.841" y="352.284" width="192.921" height="64.028" style="fill:white;stroke:black;stroke-width:1.63px;"/>
            </g>
            <g transform="matrix(1.31017,0,0,1,-735.804,933.953)">
                <rect x="636.841" y="352.284" width="192.921" height="64.028" style="fill:white;stroke:black;stroke-width:3.66px;"/>
            </g>
            <g transform="matrix(3.55415,0,0,1,-1867.56,933.953)">
                <rect x="636.841" y="352.284" width="192.921" height="64.028" style="fill:white;stroke:black;stroke-width:1.63px;"/>
            </g>
            <g transform="matrix(1,0,0,1,0,110)">
                <rect x="636.841" y="352.284" width="192.921" height="64.028" style="fill:white;stroke:black;stroke-width:4.26px;"/>
            </g>
            <g transform="matrix(1,0,0,1,0,230)">
                <rect x="636.841" y="352.284" width="192.921" height="64.028" style="fill:white;stroke:black;stroke-width:4.26px;"/>
            </g>
            <g transform="matrix(2.20506,0,0,1,-1307.43,0)">
                <rect x="636.841" y="352.284" width="192.921" height="64.028" style="fill:white;stroke:black;stroke-width:2.49px;"/>
            </g>
            <g transform="matrix(2.20506,0,0,1,-1307.43,110)">
                <rect x="636.841" y="352.284" width="192.921" height="64.028" style="fill:white;stroke:black;stroke-width:2.49px;"/>
            </g>
            <g transform="matrix(2.20506,0,0,1,-1307.43,230)">
                <rect x="636.841" y="352.284" width="192.921" height="64.028" style="fill:white;stroke:black;stroke-width:2.49px;"/>
            </g>
            <g transform="matrix(1.02235,0,0,1,-17.2736,0)">
                <rect x="105.891" y="694.214" width="1006.42" height="77.45" style="fill:rgb(235,235,235);stroke:black;stroke-width:4.21px;"/>
            </g>
        </g>
    </g>
</svg>
