<?xml version="1.0" standalone="no"?>
<!DOCTYPE svg PUBLIC "-//W3C//DTD SVG 20010904//EN"
 "http://www.w3.org/TR/2001/REC-SVG-20010904/DTD/svg10.dtd">
<svg version="1.0" xmlns="http://www.w3.org/2000/svg"
 width="700.000000pt" height="700.000000pt" viewBox="0 0 700.000000 700.000000"
 preserveAspectRatio="xMidYMid meet">
<metadata>
Created by potrace 1.14, written by Peter Selinger 2001-2017
</metadata>
<g transform="translate(0.000000,700.000000) scale(0.100000,-0.100000)"
fill="#000000" stroke="none">
<path d="M2288 6265 c-482 -161 -889 -301 -906 -310 -16 -10 -36 -30 -45 -45
-9 -14 -82 -288 -162 -608 l-145 -582 -295 -590 c-226 -452 -295 -599 -295
-627 0 -24 153 -445 441 -1212 242 -647 448 -1188 457 -1203 9 -15 34 -37 56
-48 53 -26 2066 -600 2106 -600 17 0 291 65 610 145 l580 145 585 0 c619 0
626 1 667 46 25 29 618 1520 618 1554 0 17 -65 291 -145 610 l-145 580 0 738
0 739 -25 37 c-18 27 -889 964 -1115 1199 -27 28 -33 29 -960 178 -512 82
-949 149 -969 148 -20 0 -430 -132 -913 -294z m1787 -135 c450 -72 820 -132
822 -133 1 -2 -50 -55 -115 -119 l-117 -117 -290 -109 -290 -109 -148 -439
-147 -439 -729 -254 -728 -253 -102 -467 c-56 -256 -101 -472 -101 -480 0 -7
110 -317 245 -687 135 -371 245 -685 245 -698 0 -32 -107 -743 -117 -777 l-8
-26 -455 129 c-250 72 -460 135 -467 142 -6 6 -196 503 -422 1105 l-410 1094
283 566 283 566 133 535 c73 294 136 541 140 549 9 16 1627 559 1655 554 11
-1 389 -61 840 -133z m-430 -2340 c79 -159 141 -291 137 -293 -26 -16 -335
-137 -349 -137 -15 0 -262 67 -447 122 l-69 20 289 289 c159 159 290 289 291
289 2 0 68 -130 148 -290z"/>
</g>
</svg>
